<?xml version="1.0" encoding="utf-8"?>
<!-- Generator: Adobe Illustrator 19.2.0, SVG Export Plug-In . SVG Version: 6.00 Build 0)  -->
<svg version="1.1" id="Layer_1" xmlns="http://www.w3.org/2000/svg" xmlns:xlink="http://www.w3.org/1999/xlink" x="0px" y="0px"
	 viewBox="0 0 841.9 595.3" style="enable-background:new 0 0 841.9 595.3;" xml:space="preserve">
<style type="text/css">
	.st0{fill:#FFFFFF;stroke:#000000;stroke-miterlimit:10;}
</style>
<path class="st0" d="M111.8,317.1c0.9-1.5,1.9-2.8,2.6-4.5c0.8-1.7,1.3-3.5,1.7-5.3c0.3-0.9,0.5-1.8,0.8-2.8c0.2-0.7,0.4-1.4,0.5-2
	c1.3-5.7,0.2-11.6,0.4-17.5c0.1-1.6,0.2-3.3,0.4-4.9c0.3-3,0.2-6.5,1.2-9.3c1-2.7,1.5-5.9,1.7-8.8c0.1-1.9,0-3.8-0.2-5.7
	c-0.3-4.3-0.7-8.5-1-12.8c-0.2-1.9-0.7-4.1-0.4-6c0.1-0.7,0.3-1.3,0.3-2.1c0-0.5-0.3-2.5-0.1-2.8c-4.8,6.3-4.7,14.9-6.2,22.7
	c-0.6,3.2-1.6,6.4-2.1,9.6c-0.8,4.9-0.5,9.9,0.8,14.7c0.5,1.8,1.1,3.5,1.3,5.3c0.2,1.5,0.2,3,0,4.6c0,0.3,0,0.5-0.1,0.8
	c-0.6,6.7-2.2,13.2-4,19.6c-0.5,1.6-1.1,3.2-1.4,4.8c-0.2,1.1-0.1,2-0.5,3.1c-1.2,2.9-3.2,5.5-4.6,8.3c-1.3,2.5-3,4.8-5.2,6.7
	c-2.3-5.8,5.8-11.5,4.4-17.5c-0.3,1.7-1.1,3.3-2.2,4.6c0.3-3.7-0.3-7.5-1.7-10.9c0.5,4.5-0.7,9.1-3.3,12.8c-2.8-9.7,7.2-19.4,5-29.3
	c-1.7,4-3.4,7.9-5.1,11.9c-2.9-7.6,6.1-14.9,6.1-23c0-3-1.3-6-0.8-9c-1.6,3.4-2.5,7.2-2.7,10.9c-1.6-1.2-2-3.5-1.6-5.4
	c0.4-1.9,1.4-3.7,2.2-5.5c2.9-6.4,3.5-13.7,1.9-20.5c-0.9,3-1.8,6.1-2.7,9.1c-1.3-10.8,9.2-20.5,7.5-31.2c-0.8,2.3-2,4.4-3.7,6.1
	c-0.2-3.9,3.1-7,5-10.4c2.2-3.8,3.4-8.4,5.2-12.4c2-4.6,4.1-9.1,6.1-13.7c1.6-3.5,3.1-7,5.4-10.1c3.7-4.9,9-8.4,14-12
	c5.2-3.7,10.2-7.6,15-11.8c8.6-7.4,12.4-18.1,16.4-28.3c7.3-18.7,14.6-37.3,21.8-56c3.6-9.2,7.4-18.7,14.5-25.7
	c6.1-5.9,14.3-9.5,22.8-9.9c6-0.3,12,1.3,16.4,5.6c4,3.9,4.1,8.7,5.1,13.8c0.5,2.9,2,5.6,3.4,8.2c2.2,4,4,8.8,6.5,12.6
	c2.8,4.3,8.4,6,13.2,6.9c5.6,1,11.8,1.6,16.1,5.5c3.1,2.8,5,4.9,9.1,6.2c4.4,1.4,9,1.8,13.6,2c11,0.4,22.6,0,31.8-5.9
	c8.4-5.4,11.7-13.8,17.6-21.2c3-3.7,6.1-6.7,8.2-11.1c2.1-4.3,3.3-9,3.6-13.7c0.4-6.4-0.9-13.3,2.3-19c3.3-5.9,10.4-8.4,17-9.7
	c9.5-1.8,20.3-1.4,27.8,4.7c7.2,5.9,9.8,15.7,10.7,24.9c0.3,2.8,0.5,5.8,1.6,8.4c1.3,2.9,3.6,5.2,5.2,7.9c2.3,3.7,3.2,8.2,5.6,11.8
	c2.1,3.3,5.3,5.9,8.2,8.5c6.3,5.7,12,12.1,16.7,19.1c2.7,4,5.4,8.1,9.4,10.9c1.4,1,1.9,2.9,3.3,4c0.8,0.7,1.8,1,2.8,1.5
	c3,1.5,5,4.1,7.3,6.4c1.2,1.2,2.6,2.1,3.9,3.2c1.5,1.2,2.4,2.8,3.8,4.2c7.4,7.9,13.3,17,20.2,25.4c15.9,19.7,37.9,37.6,63.7,41.2
	c10.1,1.4,20.6,0.6,30-3.3c8.8-3.6,18-10.6,21.8-19.6c4.7-11.1,9.9-22.2,13.7-33.8c1.6-4.9,2.2-9.3,4.9-13.7
	c2.9-4.6,6.5-8.8,10.7-12.3c1.3-1.1,2.8-2.2,3.7-3.7c1.3-2.2,1.2-5,2.5-7.2c2.5-4.2,7.6-8.5,4.7-14.2c-0.5-0.9-1.2-1.7-1.7-2.6
	c-0.4-0.9-0.5-2-0.6-3c-0.1-2.3,1.4-4.2,3.8-4.3c1.6-0.1,3,1.1,4.5,1.8c2.4,1.2,3.8,0.8,5.9-0.1c1.3-0.5,4.8-1.1,5.6-2.3
	c0.8-1.2-0.2-3.1,0.6-4.2c0.5-0.6,1.4-0.8,2.2-0.8c4.7-0.3,9.5,1.4,13,4.6c0.5,0.4,0.9,0.9,1.5,1.2c0.7,0.4,1.5,0.4,2.3,0.4
	c2.6,0,5.2-0.2,7.8,0.3c3.7,0.7,5,4,8.2,5c0.9,0.3,1.9,0.3,2.8,0.2c2.6-0.1,4.7-0.7,7.4-0.1c3,0.7,5.9,1.9,8.9,2.7
	c7.2,1.7,14.8,0.2,22,2c2.4,0.6,4.8,1.6,7.3,1.9c3.2,0.4,6.6-0.2,9.5,1.2c1.1,0.6,2.1,1.4,3.3,2c2.2,1.1,4.9,1.2,7,2.5
	c1.8,1.1,3,3,4.1,4.8c0.7,1.1,1.4,2.3,1.3,3.5c0,0.9-0.4,1.7-0.3,2.6c0.1,0.8,0.7,1.4,1.3,2c1.5,1.5,2.9,3,4.4,4.6
	c0.4,0.4,0.8,0.8,1.1,1.3c0.8,1,1.4,2.2,1.2,3.4c-0.4,2.6-4.1,4.2-3.5,6.8c-2,0.5-4.1,0.8-6.1,0.8c0.1,1.5,0.9,2.8,0.9,4.3
	c0,1.9-1.5,3.5-3.2,4.3c-1.7,0.8-3.7,0.8-5.6,0.9c-2.9,0.1-5.9,0.1-8.6-0.9c-1.7-0.6-3.2-1.6-5-2c-5-0.9-11.2,3.1-15.5,5.3
	c-5.2,2.7-10.1,6-14.7,9.7c-4.7,3.8-9.1,8.2-14.8,10.1c-2.5,0.9-5.1,1.2-7.5,2.2c-2.3,1-5.3,1.7-6,4.5c-0.4,1.6,0,3.4,0.3,5
	c0.3,1.7,0.7,3.4,0.2,5c-0.6,2.1-2.3,3.6-3.9,5.1c-2.9,2.9-5.4,6.2-7.4,9.8c-1.3,2.4-2.4,4.9-3.8,7.2c-2.3,3.8-5.4,7.2-7.5,11.1
	c-1.2,2.3-2.2,4.7-3.5,6.8c-1.1,1.7-2.5,3.2-3.8,4.7c-3.4,3.7-6.9,7.2-10.3,10.9c-2,2.2-3.9,4.3-6,6.4c-2,1.9-4,3.7-6.1,5.5
	c-3.1,2.8-5.5,5.6-9,7.9c-3.8,2.5-7,6.1-10.7,8.9c-0.7,0.5-1.4,1-2.1,1.5c-5.1,3.2-10.6,5.8-15.9,8.8c-6.2,3.6-12.4,7.2-19.2,9.3
	c-6.7,2.1-13.8,2.7-20.8,3.1c-10.3,0.5-20.7-0.4-31-1.3c-10.9-1-21.8-2.3-32.6-4.1c-1.5-0.2-3.1-0.4-4.3,0.4
	c-1.2,0.9-1.4,2.5-1.9,3.9c-1.6,4.7-6.6,7.3-10.7,10.2c-0.4,0.3-0.8,0.6-0.9,1.1c-0.1,0.5,0.2,0.9,0.4,1.3
	c3.8,6.2,5.1,13.6,7.2,20.6c1.6,5.4,3.6,10.6,5.6,15.8c2.4,6.1,4.7,12.3,7.1,18.4c2.9,7.6,5.8,15.2,9.3,22.6c1.8,3.7,3.8,7.3,5.7,11
	c0.8,1.6,0.8,3.1,1.5,4.7c0.7,1.7,1.9,3.2,3,4.7c2.9,3.9,5.4,8.1,7.4,12.5c1.3,2.8,2.4,5.8,2.4,8.8c0,1.8-0.3,3.7-0.4,5.5
	c-0.7,7.5,0.9,14.8,3.4,22c2.4,7,5.7,13.8,8.4,20.6c2.7,6.8,4.9,13.7,7.5,20.5c4.2,11.1,9.5,21.7,14.7,32.3c1.5,3,3,6.1,4.5,9.1
	c2.6,5.4,5.7,11.1,11.1,13.6c3.5,1.6,7.1,0.8,10.6,1.8c2.7,0.8,11.1,3.4,10.7,7.3c-0.1,1-0.7,1.9-1,2.9c-0.1,0.4-0.1,0.9-0.3,1.3
	c-0.4,1.2-1.5,2-2.6,2.4c-3.9,1.4-5.8,5.7-10.1,6.2c-5.3,0.6-10.6,1.4-16,1.6c-3.4,0.1-6.8,0.1-10-0.7c-3.7-0.9-4.7-2.3-7-5
	c-1.8-2-3.6-4.1-3.9-6.7c-0.3-3,1.4-5.9,1.1-8.8c-0.5-4.4-5.1-6.9-7.5-10.6c-0.7-1.1-1.1-2.2-1.6-3.4c-2.2-5.8-4.2-11.7-6.1-17.6
	c-1.8-5.8-3.5-11.6-5.2-17.3c-2.6-8.6-5.2-17.3-8.7-25.7c-1.9-4.7-4-9.3-6.1-14c-1.5-3.2-2.9-6.5-4.4-9.7c-1.7-3.9-3.5-7.7-5.8-11.3
	c-2.1-3.3-4.7-6.4-5.8-10.2c-0.6-2-0.8-4.1-1.3-6.1c-1.2-5.3-5.1-8.7-7.6-13.5c-13.7-26.4-31.7-50.2-49.7-73.9
	c-2.2-2.8-4.5-5.8-7.9-6.9c-2.8-0.9-6.5-0.5-8.1-3c-5.7,8.5-10.4,17.6-15.2,26.7c-12.3,23.3-24.7,46.7-33.6,71.5
	c-0.6,1.6-1.1,3-1.5,4.7c-0.6,2.5-1.2,5.1-2.3,7.5c-2.4,5.3-6.7,9.4-10,14.3c-2.6,3.9-4.4,8.2-6.2,12.6
	c-4.9,11.9-9.9,23.8-12.5,36.4c-0.8,4-1.3,7.7-2.7,11.5c-1.5,4.1-3.4,8.2-4.9,12.3c-2.1,5.8-3.7,11.9-2.9,18
	c0.1,0.9,0.3,1.8,0.8,2.5c0.6,0.8,1.7,1.1,2.4,1.8c1,0.8,1.8,2,2.5,3.1c1.5,2.3,2.5,4.8,4.3,6.8c4.2,5,11.2,6.3,17.7,7.4
	c1.2,0.2,2.5,0.4,3.6,1.2c1,0.7,1.7,2.2,1.1,3.3c-0.2,0.4-0.6,0.8-0.9,1.1c-4.6,4-9.2,3.3-14.9,3.3c-5.9-0.1-11.9-0.1-17.8,0.2
	c-5.7,0.3-11.3,0.8-16.9,0c-1.8-0.3-3.7-0.8-4.6-2.3c-1.1-2,0.1-4.5,1.4-6.3c2-2.7,4.9-4.8,6.8-7.5c1.4-2,0.6-5.2-0.5-7.2
	c-0.9-1.7-2.2-3.1-3-4.9c-1.6-3.8-0.4-8.2,1-12.2c0-0.1,0.1-0.2,0.1-0.3c1-2.8,1.9-5.7,2.9-8.5c1.8-5.4,3.9-10.6,5.6-16
	c2.3-7.5,4.3-14.8,7.3-22c2.8-6.8,5.3-13.5,6.7-20.7c0.7-3.6,1.2-7,1.3-10.7c0.1-4.1,1.3-8.1,1.8-12.2c0.8-6.2-0.1-12.7,1.3-18.8
	c0.6-2.8,1.8-5.5,2.9-8.1c4.9-11,9.8-22,14.7-33c1.3-3,2.7-5.9,3.7-9c0.6-1.9,1.2-3.8,1.8-5.7c2.7-8.4,7-16.3,9.6-24.7
	c0.7-2.1,1.2-4.2,1.8-6.3c1.5-5.3,2.6-10.6,4.4-15.7c-13.8-1.2-27.4-3.8-41-6.4c-24.8-4.8-49.7-9.7-73.8-17.4
	c-5.8-1.9-11.8-3.7-17.4-6.2c-1.9-0.8-2.8-2.1-4.4-3.4c-2-1.7-4.4-3.1-6.7-4.3c-3-1.5-6.1-2.6-9.1-4.1c-2.2-1.1-4.4-2.4-6.5-3.8
	c-3.3-2-6.6-4.1-9.8-6.1c-4.8-3-9.7-6.1-13.3-10.6c-0.8-1-1.5-2-2.3-3c-0.8-0.9-1.7-1.7-2.6-2.5c-3.2-2.8-6.3-5.6-9.5-8.3
	c-0.2-0.2-0.5-0.4-0.8-0.4c-0.3,0-0.5,0.2-0.7,0.4c-1.3,1.3-1.3,2.5-1.9,4c-0.5,1.2-1.4,2.2-2,3.3c-1.7,3.5-3,7.2-4.1,10.9
	c-1.1,3.7-3.1,7.2-4.8,10.7c-0.8,1.6-1.5,3.3-1.8,5c-0.2,1.5-0.1,3,0,4.6c0,5.3,0.9,10.7,1.4,16c0.5,5.2,0.6,10.1,0.2,15.3
	c-0.1,1.4,0,2.9-0.6,4.2c-0.8,1.6-2.3,3.2-3.4,4.7c-2.1,3.1-4,6.2-5.9,9.4c-3.7,6.4-7.1,13-10.5,19.6c-2.3,4.5-4.6,9.1-6.5,13.8
	c-2,5.3-3.4,10.8-4.8,16.4c-5.1,20.3-10.2,41.3-6.9,62.1c0.6,3.7,1.4,7.4,1.7,11.1c0.2,3.9-0.3,7.9-0.2,11.8
	c0.1,4.6,1.6,9.5,2.7,13.9c2.3,9.2,5.5,18.2,8.7,27.2c1.1,3,1.7,5.9,2.9,8.8c1.5,3.6,2.8,7.4,3.8,11.2c0.4,1.5,0.8,3,1.4,4.4
	c0.6,1.3,1.4,2.5,2.2,3.7c2.1,3.1,4.6,6,6.6,9.1c1.6,2.7,3.9,4.3,6,6.6c0.7,0.8,1.4,1.6,2.1,2.3c1.6,1.5,3.6,2.5,5.6,3.4
	c3.2,1.4,6.6,2.3,9.7,3.8c2.9,1.4,6,2,8.9,3.2c3.6,1.5,7.1,4.6,7,8.6c-1.8,0.1-3.5,0.2-5.3,0.3c-0.4,0-0.8,0.1-1.1,0.3
	c-0.2,0.2-0.3,0.5-0.5,0.7c-1.5,3-5.2,2.5-8,2.5c-12.4,0.3-24.9-0.6-37.2-2.7c0.6-4.1-0.5-8.5-2.9-11.9c-1.6-2.2-3.8-4.1-4.2-6.8
	c-0.2-1.2,0-2.5-0.1-3.7c-0.1-1.5-0.5-2.9-0.9-4.3c-7-22.8-18.7-43.9-26.3-66.5c-2.7-8.1-5.3-16.5-9.4-24c-4-7.5-9.1-14.4-12.2-22.4
	c-0.9-2.3-1.7-4.8-1.5-7.3c0.1-1.9,0.8-3.8,1.5-5.6c1.5-3.8,2.9-7.5,4.4-11.3c1-2.6,2-5.2,2.4-7.9c0.3-2.2,0.1-4.4,0.3-6.5
	c0.2-2.4,0.9-4.7,1.5-7.1c2.2-8.6,3.6-17.4,4.3-26.2c-1.1,2.3-3.4,3.7-5.3,5.4c-4.1,3.8-5.7,9.5-8.4,14.4c-1.7,3-3.9,5.7-5.9,8.5
	c-5.3,7.1-9.9,14.5-13.9,22.4c-0.8,1.6-1.6,3.2-1.9,4.9c-0.6,3.6,0.4,7.3-0.4,10.9c-0.9,3.9-3.9,7.8-5.8,11.3
	c-1.4,2.7-2.6,5.3-4.2,8c-2.9,5-3.2,9.7-4.3,15.1c-1.5,7.7-3,15.3-4.6,23c-3.2,16.3-6.4,32.5-8.2,49c-0.5,4.3-0.7,9,1.7,12.5
	c2,2.8,5,4.3,6.6,7.4c0.7,1.4,1.2,2.9,0.9,4.5c-1.5,6.6-12.9,3.1-17.6,3.6c-5.3,0.5-10.6-0.8-14.6-4.5c-3.9-3.5-7.6-9.6-3.7-14.1
	c3-3.5,8.2-5.6,9.3-10.4c1-4.3-2.2-8.6-1.7-13c0.3-2.7,1.8-5,2.9-7.5c1.3-3,1.9-6.2,2.5-9.4c2.1-11.3,4.2-22.6,6.3-34
	c0.7-4,1.5-8,1.9-12c0.5-4.9-0.2-9.9,0.4-14.7c0.4-3.2,0.9-6.6,1.1-10c0.2-2.5,0.2-5,0-7.5c-0.6-6.8-1.1-13.6-1.7-20.3
	c-0.2-2-0.3-4,0-5.9c0.7-4.6,3.6-7.1,6.4-10.5c3.1-3.7,5.5-7.7,7.7-12c4.6-9.2,10-18,15.3-26.8c3-5.1,6.1-10.5,7.8-16.3
	C103.8,329,108.3,323.2,111.8,317.1z"/>
</svg>
