<?xml version="1.0" encoding="utf-8"?>
<!-- Generator: Adobe Illustrator 19.2.0, SVG Export Plug-In . SVG Version: 6.00 Build 0)  -->
<svg version="1.1" xmlns="http://www.w3.org/2000/svg" xmlns:xlink="http://www.w3.org/1999/xlink" x="0px" y="0px"
	 viewBox="0 0 3900 249" style="enable-background:new 0 0 3900 249;" xml:space="preserve">
<style type="text/css">
	.st0{fill:url(#SVGID_1_);}
	.st1{fill:#E48E42;}
	.st2{fill:#F48A32;}
	.st3{fill:#F97F28;}
	.st4{fill:#DB6926;}
	.st5{fill:#854C26;}
</style>
<g id="sky">
	<linearGradient id="SVGID_1_" gradientUnits="userSpaceOnUse" x1="1950" y1="-8.754705e-08" x2="1950" y2="249">
		<stop  offset="0" style="stop-color:#C7905E"/>
		<stop  offset="1" style="stop-color:#BCB16D"/>
	</linearGradient>
	<rect y="0" class="st0" width="3900" height="249"/>
</g>
<g id="dunes">
	<path class="st1" d="M1745.9,248.5c-6.2-12.6-13.2-24.8-21.1-36.5c-4.4-6.6-9.3-13.2-15.8-17.7c-7.4-5.1-16.4-7.3-25.2-9.4
		c-23.5-5.5-47-11-70.5-16.6c-25.6-6-51.4-12-77.7-12.3c-26.8-0.3-53.2,5.5-79.6,10.6c-117,22.6-239.6,32.1-354-1.1
		c-15.5-4.5-31.3-9.8-47.4-8.8c-13.4,0.8-26.1,6-38.5,11.1c-22.9,9.4-45.9,18.9-68.8,28.3c-24.1,9.9-42.4,30.5-56.6,52.9
		L1745.9,248.5z"/>
	<path class="st2" d="M2325.8,249c-9.1-14.6-24.8-24.5-39.8-33.5c-31.4-18.7-63.7-37.4-99.5-44.7c-22.1-4.5-44.9-4.9-67.2-7.4
		c-22.7-2.6-45.3-5.6-67.9-9.1c-7.6-1.2-15.3-2.4-23-2.7c-9.7-0.4-19.3,0.8-29,1.2c-8.7,0.4-17.5,0.2-26.2,0.1
		c-43.4-0.8-86.6-2.7-129.7,4c-31.4,4.9-62.2,12.8-93.4,18.4c-28.9,5.2-58.1,8.5-87.2,11.9c-40.5,4.6-81,9.2-121.5,13.8
		c-13.4,1.5-26.9,3.1-40.3,4.6c-66.9,7.5-135.7,17.3-203,14.2c-27.9-1.3-55.6-6-83.4-9.2c-31.2-3.6-62.6-5.1-94-7.3
		c-33.1-2.3-65.9-7.9-98.8-10c-34.1-2.2-68.2-4.9-101.9-11.2c-38.9-7.3-77-19.2-116.1-25.2c-29.6-4.5-59.6-5.5-89.6-5.8
		c-92.4-1-185.2,4.4-275.6,23.5c-44.1,9.3-82.2,35.2-121.2,57.7c-9.6,5.5-19.1,11.2-28.2,17.5"/>
	<g>
		<path class="st1" d="M541.8,249c-16.7-17-39.2-28.6-61.2-38.7c-77.2-35.4-158.6-60.7-238-90.9c-27.1-10.3-55.8-21.4-84.2-15.9
			c-13.1,2.5-25.3,8.5-37.9,12.6C81.4,129,36.5,125.6,0,142.1V249L541.8,249z"/>
		<path class="st3" d="M648.3,249c-2.4,2.4-5-4.6-7.8-6.6c-20.6-14.9-47.6-16.1-72.6-20.4c-56.8-9.9-108.5-38.3-163.5-55.7
			c-29-9.2-58.9-15.3-87.6-25.6c-27.5-9.9-54.2-23.7-83.4-26.7c-26.2-2.6-52.5,3.8-78.8,5.2c-30.3,1.7-61.1-3.1-90.8,3
			c-23.1,4.8-44,15.9-64,28.7V249C0,249,649.2,248.1,648.3,249z"/>
		<path class="st4" d="M1062.7,249.1c-17.1-3.1-34.6-2-51.4-4.6c-38.5-6-75.9-12.8-113.7-22.8c-37.1-9.8-74.2-20.1-112.2-25.8
			c-104.6-15.8-211.1,3.8-316.8,1.2c-79.7-1.9-158.5-16.3-238-21.7c-78.1-5.3-159.1-1.2-230.6,30.7V249L1062.7,249.1z"/>
		<path class="st2" d="M993.5,249c-12.7-3.6-27.6-4.3-40.7-5.5c-19.8-1.8-39.2-6.9-58.2-12.7c-22.6-7-45-15-68-20.6
			c-82.8-19.8-169.3-5.6-254.4-3.8c-97.1,2-193.7-12.3-290.6-19.1C187,180.7,90,181.5,0,210.8V249L993.5,249z"/>
	</g>
	<path class="st1" d="M2060.3,249c16.7-17,39.2-28.6,61.2-38.7c77.2-35.4,158.6-60.7,238-90.9c27.1-10.3,55.8-21.4,84.2-15.9
		c13.1,2.5,25.3,8.5,37.9,12.6c39,12.9,83.9,9.5,120.4,25.9c59.7,26.9,116.9,47.2,179.6,66c39.4,11.8,81.2,11.2,122.3,10.4
		c55.1-1,110.4-2.1,164.8-10.7c50.6-8,100.4-22.6,151.6-23.4c37.5-0.6,74.8,6.3,112.3,5.4c79.9-1.9,154.9-38.6,234-50.5
		c108.9-16.4,227.6,17.2,333.3,48.2c2.9,0.9-2.9,60.4,0,61.5"/>
	<path class="st3" d="M1956.4,248.5c2.4,2.4,5-4.6,7.8-6.6c20.6-14.9,47.6-16.1,72.6-20.4c56.8-9.9,108.5-38.3,163.5-55.7
		c29-9.2,58.9-15.3,87.6-25.6c27.5-9.9,54.2-23.7,83.4-26.7c26.2-2.6,52.5,3.8,78.8,5.2c30.3,1.7,61.1-3.1,90.8,3
		c13.5,2.8,25.8,8,38.2,13.8c9.6,4.5,20.1,5.6,29.5,9.8c12.5,5.6,23.9,14,36.4,19.9c24.8,11.6,51,20.2,77.9,25.3
		c71.7,13.6,145.8,2.9,218.5,9.4c54.8,4.9,108.6,19.6,163.6,21.7c142.3,5.6,277.5-72.2,419.8-69.5c60.4,1.2,120.3,16.9,180.6,13.7
		c66.1-3.5,129.6-29.5,194.6-39.1V249L1956.4,248.5z"/>
	<path class="st4" d="M3709.5,249c-45.5-18.5-62.4-22.5-117.3-25.2s-110,3.7-164.7-2.1c-49.4-5.2-97.4-20.2-146.9-24.1
		c-70.9-5.7-141.4,11.4-212.4,16.9c-124.8,9.7-250.1-16.4-375.2-11c-3.7,0.2-7.4,0.3-11.1,0.5c-26.4,1.4-53.1,3.4-79.5-0.4
		c-12.1-1.7-21.5-6.5-33-9.9c-13-3.8-26.2-7.1-39.5-9.8c-51.3-10.4-103.8-12.3-155.9-9c-79.5,4.9-158.3,19.8-238,21.7
		c-105.7,2.5-212.2-17-316.8-1.2c-38,5.7-75.1,16.1-112.2,25.8c-37.8,10-75.2,16.8-113.7,22.8c-16.9,2.6-34.3,1.5-51.4,4.6
		L3709.5,249z"/>
	<path class="st2" d="M3700,249c-51-19-77.4-18.3-138.6-20.1c-61.3-1.8-122.8,1.6-183.6-6.1c-50.9-6.5-100.7-17.4-152.4-16
		c-44.9,1.2-89.3,10-134.1,13.8c-126.3,10.7-253-18.3-379.6-12.2c-30.6,1.5-61.2,5-91.7,2.7c-24.6-1.8-48.8-7.4-72.8-12.9
		c-17.6-4.1-35.2-9.2-53.1-10.7c-18.9-1.6-37.8-3.2-56.8-3.7c-38-1.1-76.1,0.4-114.1,3c-96.9,6.8-193.5,21.1-290.6,19.1
		c-85.1-1.8-171.6-16-254.4,3.8c-23,5.5-45.4,13.6-68,20.6c-19,5.9-38.4,11-58.2,12.7c-13.1,1.2-27.9,1.9-40.7,5.5L3700,249z"/>
</g>
<g id="camels">
	<path class="st5" d="M483.3,181.9c0.1-0.1,0.1-0.2,0.2-0.3c0-0.1,0.1-0.2,0.1-0.3c0-0.1,0-0.1,0-0.2c0,0,0-0.1,0-0.1
		c0.1-0.4,0-0.7,0-1.1c0-0.1,0-0.2,0-0.3c0-0.2,0-0.4,0.1-0.6c0.1-0.2,0.1-0.4,0.1-0.6c0-0.1,0-0.2,0-0.4c0-0.3,0-0.5-0.1-0.8
		c0-0.1,0-0.3,0-0.4c0,0,0-0.1,0-0.1c0,0,0-0.2,0-0.2c-0.3,0.4-0.3,1-0.4,1.5c0,0.2-0.1,0.4-0.1,0.6c0,0.3,0,0.6,0.1,0.9
		c0,0.1,0.1,0.2,0.1,0.3c0,0.1,0,0.2,0,0.3c0,0,0,0,0,0.1c0,0.4-0.1,0.8-0.3,1.3c0,0.1-0.1,0.2-0.1,0.3c0,0.1,0,0.1,0,0.2
		c-0.1,0.2-0.2,0.4-0.3,0.5c-0.1,0.2-0.2,0.3-0.3,0.4c-0.1-0.4,0.4-0.7,0.3-1.1c0,0.1-0.1,0.2-0.1,0.3c0-0.2,0-0.5-0.1-0.7
		c0,0.3,0,0.6-0.2,0.8c-0.2-0.6,0.5-1.2,0.3-1.9c-0.1,0.3-0.2,0.5-0.3,0.8c-0.2-0.5,0.4-1,0.4-1.5c0-0.2-0.1-0.4-0.1-0.6
		c-0.1,0.2-0.2,0.5-0.2,0.7c-0.1-0.1-0.1-0.2-0.1-0.3c0-0.1,0.1-0.2,0.1-0.4c0.2-0.4,0.2-0.9,0.1-1.3c-0.1,0.2-0.1,0.4-0.2,0.6
		c-0.1-0.7,0.6-1.3,0.5-2c0,0.1-0.1,0.3-0.2,0.4c0-0.3,0.2-0.4,0.3-0.7c0.1-0.2,0.2-0.5,0.3-0.8c0.1-0.3,0.3-0.6,0.4-0.9
		c0.1-0.2,0.2-0.4,0.3-0.6c0.2-0.3,0.6-0.5,0.9-0.8c0.3-0.2,0.7-0.5,1-0.8c0.5-0.5,0.8-1.2,1.1-1.8c0.5-1.2,0.9-2.4,1.4-3.6
		c0.2-0.6,0.5-1.2,0.9-1.6c0.4-0.4,0.9-0.6,1.5-0.6c0.4,0,0.8,0.1,1,0.4c0.3,0.2,0.3,0.6,0.3,0.9c0,0.2,0.1,0.4,0.2,0.5
		c0.1,0.3,0.3,0.6,0.4,0.8c0.2,0.3,0.5,0.4,0.8,0.4c0.4,0.1,0.8,0.1,1,0.3c0.2,0.2,0.3,0.3,0.6,0.4c0.3,0.1,0.6,0.1,0.9,0.1
		c0.7,0,1.4,0,2-0.4c0.5-0.3,0.7-0.9,1.1-1.4c0.2-0.2,0.4-0.4,0.5-0.7c0.1-0.3,0.2-0.6,0.2-0.9c0-0.4-0.1-0.9,0.1-1.2
		c0.2-0.4,0.7-0.5,1.1-0.6c0.6-0.1,1.3-0.1,1.8,0.3c0.5,0.4,0.6,1,0.7,1.6c0,0.2,0,0.4,0.1,0.5c0.1,0.2,0.2,0.3,0.3,0.5
		c0.1,0.2,0.2,0.5,0.4,0.8c0.1,0.2,0.3,0.4,0.5,0.5c0.4,0.4,0.8,0.8,1.1,1.2c0.2,0.3,0.3,0.5,0.6,0.7c0.1,0.1,0.1,0.2,0.2,0.3
		c0.1,0,0.1,0.1,0.2,0.1c0.2,0.1,0.3,0.3,0.5,0.4c0.1,0.1,0.2,0.1,0.2,0.2c0.1,0.1,0.2,0.2,0.2,0.3c0.5,0.5,0.9,1.1,1.3,1.6
		c1,1.3,2.4,2.4,4.1,2.6c0.6,0.1,1.3,0,1.9-0.2c0.6-0.2,1.2-0.7,1.4-1.3c0.3-0.7,0.6-1.4,0.9-2.2c0.1-0.3,0.1-0.6,0.3-0.9
		c0.2-0.3,0.4-0.6,0.7-0.8c0.1-0.1,0.2-0.1,0.2-0.2c0.1-0.1,0.1-0.3,0.2-0.5c0.2-0.3,0.5-0.5,0.3-0.9c0-0.1-0.1-0.1-0.1-0.2
		c0-0.1,0-0.1,0-0.2c0-0.1,0.1-0.3,0.2-0.3c0.1,0,0.2,0.1,0.3,0.1c0.2,0.1,0.2,0.1,0.4,0c0.1,0,0.3-0.1,0.4-0.1c0-0.1,0-0.2,0-0.3
		c0,0,0.1,0,0.1-0.1c0.3,0,0.6,0.1,0.8,0.3c0,0,0.1,0.1,0.1,0.1c0,0,0.1,0,0.2,0c0.2,0,0.3,0,0.5,0c0.2,0,0.3,0.3,0.5,0.3
		c0.1,0,0.1,0,0.2,0c0.2,0,0.3,0,0.5,0c0.2,0,0.4,0.1,0.6,0.2c0.5,0.1,0.9,0,1.4,0.1c0.2,0,0.3,0.1,0.5,0.1c0.2,0,0.4,0,0.6,0.1
		c0.1,0,0.1,0.1,0.2,0.1c0.1,0.1,0.3,0.1,0.4,0.2c0.1,0.1,0.2,0.2,0.3,0.3c0,0.1,0.1,0.1,0.1,0.2c0,0.1,0,0.1,0,0.2
		c0,0.1,0,0.1,0.1,0.1c0.1,0.1,0.2,0.2,0.3,0.3c0,0,0,0.1,0.1,0.1c0.1,0.1,0.1,0.1,0.1,0.2c0,0.2-0.3,0.3-0.2,0.4
		c-0.1,0-0.3,0.1-0.4,0.1c0,0.1,0.1,0.2,0.1,0.3c0,0.1-0.1,0.2-0.2,0.3s-0.2,0.1-0.4,0.1c-0.2,0-0.4,0-0.6-0.1
		c-0.1,0-0.2-0.1-0.3-0.1c-0.3-0.1-0.7,0.2-1,0.3c-0.3,0.2-0.6,0.4-0.9,0.6c-0.3,0.2-0.6,0.5-0.9,0.6c-0.2,0.1-0.3,0.1-0.5,0.1
		c-0.1,0.1-0.3,0.1-0.4,0.3c0,0.1,0,0.2,0,0.3c0,0.1,0,0.2,0,0.3c0,0.1-0.1,0.2-0.2,0.3c-0.2,0.2-0.3,0.4-0.5,0.6
		c-0.1,0.2-0.2,0.3-0.2,0.5c-0.1,0.2-0.3,0.5-0.5,0.7c-0.1,0.1-0.1,0.3-0.2,0.4c-0.1,0.1-0.2,0.2-0.2,0.3c-0.2,0.2-0.4,0.5-0.7,0.7
		c-0.1,0.1-0.3,0.3-0.4,0.4c-0.1,0.1-0.3,0.2-0.4,0.4c-0.2,0.2-0.4,0.4-0.6,0.5c-0.2,0.2-0.5,0.4-0.7,0.6c0,0-0.1,0.1-0.1,0.1
		c-0.3,0.2-0.7,0.4-1,0.6c-0.4,0.2-0.8,0.5-1.2,0.6c-0.4,0.1-0.9,0.2-1.3,0.2c-0.7,0-1.3,0-2-0.1c-0.7-0.1-1.4-0.1-2.1-0.3
		c-0.1,0-0.2,0-0.3,0c-0.1,0.1-0.1,0.2-0.1,0.3c-0.1,0.3-0.4,0.5-0.7,0.7c0,0-0.1,0-0.1,0.1c0,0,0,0.1,0,0.1
		c0.2,0.4,0.3,0.9,0.5,1.3c0.1,0.3,0.2,0.7,0.4,1c0.2,0.4,0.3,0.8,0.5,1.2c0.2,0.5,0.4,1,0.6,1.4c0.1,0.2,0.2,0.5,0.4,0.7
		c0.1,0.1,0.1,0.2,0.1,0.3c0,0.1,0.1,0.2,0.2,0.3c0.2,0.2,0.3,0.5,0.5,0.8c0.1,0.2,0.2,0.4,0.2,0.6c0,0.1,0,0.2,0,0.4
		c0,0.5,0.1,0.9,0.2,1.4c0.2,0.4,0.4,0.9,0.5,1.3c0.2,0.4,0.3,0.9,0.5,1.3c0.3,0.7,0.6,1.4,0.9,2.1c0.1,0.2,0.2,0.4,0.3,0.6
		c0.2,0.3,0.4,0.7,0.7,0.9c0.2,0.1,0.5,0.1,0.7,0.1c0.2,0.1,0.7,0.2,0.7,0.5c0,0.1,0,0.1-0.1,0.2c0,0,0,0.1,0,0.1
		c0,0.1-0.1,0.1-0.2,0.2c-0.2,0.1-0.4,0.4-0.6,0.4c-0.3,0-0.7,0.1-1,0.1c-0.2,0-0.4,0-0.6,0c-0.2-0.1-0.3-0.2-0.4-0.3
		c-0.1-0.1-0.2-0.3-0.3-0.4c0-0.2,0.1-0.4,0.1-0.6c0-0.3-0.3-0.4-0.5-0.7c0-0.1-0.1-0.1-0.1-0.2c-0.1-0.4-0.3-0.7-0.4-1.1
		c-0.1-0.4-0.2-0.7-0.3-1.1c-0.2-0.6-0.3-1.1-0.6-1.6c-0.1-0.3-0.3-0.6-0.4-0.9c-0.1-0.2-0.2-0.4-0.3-0.6c-0.1-0.2-0.2-0.5-0.4-0.7
		c-0.1-0.2-0.3-0.4-0.4-0.7c0-0.1-0.1-0.3-0.1-0.4c-0.1-0.3-0.3-0.6-0.5-0.9c-0.9-1.7-2-3.2-3.2-4.7c-0.1-0.2-0.3-0.4-0.5-0.4
		c-0.2-0.1-0.4,0-0.5-0.2c-0.4,0.5-0.7,1.1-1,1.7c-0.8,1.5-1.6,3-2.1,4.6c0,0.1-0.1,0.2-0.1,0.3c0,0.2-0.1,0.3-0.1,0.5
		c-0.2,0.3-0.4,0.6-0.6,0.9c-0.2,0.2-0.3,0.5-0.4,0.8c-0.3,0.8-0.6,1.5-0.8,2.3c-0.1,0.3-0.1,0.5-0.2,0.7c-0.1,0.3-0.2,0.5-0.3,0.8
		c-0.1,0.4-0.2,0.8-0.2,1.2c0,0.1,0,0.1,0.1,0.2c0,0.1,0.1,0.1,0.2,0.1c0.1,0.1,0.1,0.1,0.2,0.2c0.1,0.1,0.2,0.3,0.3,0.4
		c0.3,0.3,0.7,0.4,1.1,0.5c0.1,0,0.2,0,0.2,0.1c0.1,0,0.1,0.1,0.1,0.2c0,0,0,0.1-0.1,0.1c-0.3,0.3-0.6,0.2-1,0.2c-0.4,0-0.8,0-1.1,0
		c-0.4,0-0.7,0.1-1.1,0c-0.1,0-0.2-0.1-0.3-0.1c-0.1-0.1,0-0.3,0.1-0.4c0.1-0.2,0.3-0.3,0.4-0.5c0.1-0.1,0-0.3,0-0.5
		c-0.1-0.1-0.1-0.2-0.2-0.3c-0.1-0.2,0-0.5,0.1-0.8c0,0,0,0,0,0c0.1-0.2,0.1-0.4,0.2-0.5c0.1-0.3,0.3-0.7,0.4-1
		c0.1-0.5,0.3-0.9,0.5-1.4c0.2-0.4,0.3-0.9,0.4-1.3c0-0.2,0.1-0.4,0.1-0.7c0-0.3,0.1-0.5,0.1-0.8c0-0.4,0-0.8,0.1-1.2
		c0-0.2,0.1-0.4,0.2-0.5c0.3-0.7,0.6-1.4,0.9-2.1c0.1-0.2,0.2-0.4,0.2-0.6c0-0.1,0.1-0.2,0.1-0.4c0.2-0.5,0.4-1,0.6-1.6
		c0-0.1,0.1-0.3,0.1-0.4c0.1-0.3,0.2-0.7,0.3-1c-0.9-0.1-1.8-0.2-2.6-0.4c-1.6-0.3-3.2-0.6-4.7-1.1c-0.4-0.1-0.8-0.2-1.1-0.4
		c-0.1-0.1-0.2-0.1-0.3-0.2c-0.1-0.1-0.3-0.2-0.4-0.3c-0.2-0.1-0.4-0.2-0.6-0.3c-0.1-0.1-0.3-0.2-0.4-0.2c-0.2-0.1-0.4-0.3-0.6-0.4
		c-0.3-0.2-0.6-0.4-0.8-0.7c0-0.1-0.1-0.1-0.1-0.2c-0.1-0.1-0.1-0.1-0.2-0.2c-0.2-0.2-0.4-0.4-0.6-0.5c0,0,0,0,0,0c0,0,0,0,0,0
		c-0.1,0.1-0.1,0.2-0.1,0.3c0,0.1-0.1,0.1-0.1,0.2c-0.1,0.2-0.2,0.5-0.3,0.7c-0.1,0.2-0.2,0.5-0.3,0.7c0,0.1-0.1,0.2-0.1,0.3
		c0,0.1,0,0.2,0,0.3c0,0.3,0.1,0.7,0.1,1c0,0.3,0,0.6,0,1c0,0.1,0,0.2,0,0.3c-0.1,0.1-0.1,0.2-0.2,0.3c-0.1,0.2-0.3,0.4-0.4,0.6
		c-0.2,0.4-0.5,0.8-0.7,1.3c-0.1,0.3-0.3,0.6-0.4,0.9c-0.1,0.3-0.2,0.7-0.3,1c-0.3,1.3-0.6,2.6-0.4,4c0,0.2,0.1,0.5,0.1,0.7
		c0,0.3,0,0.5,0,0.8c0,0.3,0.1,0.6,0.2,0.9c0.2,0.6,0.4,1.2,0.6,1.7c0.1,0.2,0.1,0.4,0.2,0.6c0.1,0.2,0.2,0.5,0.2,0.7
		c0,0.1,0,0.2,0.1,0.3c0,0.1,0.1,0.2,0.1,0.2c0.1,0.2,0.3,0.4,0.4,0.6c0.1,0.2,0.2,0.3,0.4,0.4c0,0,0.1,0.1,0.1,0.1
		c0.1,0.1,0.2,0.2,0.4,0.2c0.2,0.1,0.4,0.1,0.6,0.2c0.2,0.1,0.4,0.1,0.6,0.2c0.2,0.1,0.5,0.3,0.5,0.5c-0.1,0-0.2,0-0.3,0
		c0,0-0.1,0-0.1,0c0,0,0,0,0,0c-0.1,0.2-0.3,0.2-0.5,0.2c-0.8,0-1.6,0-2.4-0.2c0-0.3,0-0.5-0.2-0.8c-0.1-0.1-0.2-0.3-0.3-0.4
		c0-0.1,0-0.2,0-0.2c0-0.1,0-0.2-0.1-0.3c-0.4-1.5-1.2-2.8-1.7-4.3c-0.2-0.5-0.3-1.1-0.6-1.5c-0.3-0.5-0.6-0.9-0.8-1.4
		c-0.1-0.1-0.1-0.3-0.1-0.5c0-0.1,0.1-0.2,0.1-0.4c0.1-0.2,0.2-0.5,0.3-0.7c0.1-0.2,0.1-0.3,0.2-0.5c0-0.1,0-0.3,0-0.4
		c0-0.2,0.1-0.3,0.1-0.5c0.1-0.5,0.2-1.1,0.3-1.7c-0.1,0.1-0.2,0.2-0.3,0.3c-0.3,0.2-0.4,0.6-0.5,0.9c-0.1,0.2-0.2,0.4-0.4,0.5
		c-0.3,0.5-0.6,0.9-0.9,1.4c-0.1,0.1-0.1,0.2-0.1,0.3c0,0.2,0,0.5,0,0.7c-0.1,0.2-0.2,0.5-0.4,0.7c-0.1,0.2-0.2,0.3-0.3,0.5
		c-0.2,0.3-0.2,0.6-0.3,1c-0.1,0.5-0.2,1-0.3,1.5c-0.2,1-0.4,2.1-0.5,3.1c0,0.3,0,0.6,0.1,0.8c0.1,0.2,0.3,0.3,0.4,0.5
		c0,0.1,0.1,0.2,0.1,0.3c-0.1,0.4-0.8,0.2-1.1,0.2c-0.3,0-0.7-0.1-0.9-0.3c-0.2-0.2-0.5-0.6-0.2-0.9c0.2-0.2,0.5-0.4,0.6-0.7
		c0.1-0.3-0.1-0.6-0.1-0.8c0-0.2,0.1-0.3,0.2-0.5c0.1-0.2,0.1-0.4,0.2-0.6c0.1-0.7,0.3-1.4,0.4-2.2c0-0.3,0.1-0.5,0.1-0.8
		c0-0.3,0-0.6,0-0.9c0-0.2,0.1-0.4,0.1-0.6c0-0.2,0-0.3,0-0.5c0-0.4-0.1-0.9-0.1-1.3c0-0.1,0-0.3,0-0.4c0-0.3,0.2-0.5,0.4-0.7
		c0.2-0.2,0.4-0.5,0.5-0.8c0.3-0.6,0.6-1.1,1-1.7c0.2-0.3,0.4-0.7,0.5-1C482.8,182.6,483.1,182.3,483.3,181.9z"/>
	<path class="st5" d="M3248.2,180.7c0.1-0.1,0.1-0.2,0.2-0.3c0-0.1,0.1-0.2,0.1-0.3c0-0.1,0-0.1,0-0.2c0,0,0-0.1,0-0.1
		c0.1-0.4,0-0.7,0-1.1c0-0.1,0-0.2,0-0.3c0-0.2,0-0.4,0.1-0.6c0.1-0.2,0.1-0.4,0.1-0.6c0-0.1,0-0.2,0-0.4c0-0.3,0-0.5-0.1-0.8
		c0-0.1,0-0.3,0-0.4c0,0,0-0.1,0-0.1c0,0,0-0.2,0-0.2c-0.3,0.4-0.3,1-0.4,1.5c0,0.2-0.1,0.4-0.1,0.6c0,0.3,0,0.6,0.1,0.9
		c0,0.1,0.1,0.2,0.1,0.3c0,0.1,0,0.2,0,0.3c0,0,0,0,0,0.1c0,0.4-0.1,0.8-0.3,1.3c0,0.1-0.1,0.2-0.1,0.3c0,0.1,0,0.1,0,0.2
		c-0.1,0.2-0.2,0.4-0.3,0.5c-0.1,0.2-0.2,0.3-0.3,0.4c-0.1-0.4,0.4-0.7,0.3-1.1c0,0.1-0.1,0.2-0.1,0.3c0-0.2,0-0.5-0.1-0.7
		c0,0.3,0,0.6-0.2,0.8c-0.2-0.6,0.5-1.2,0.3-1.9c-0.1,0.3-0.2,0.5-0.3,0.8c-0.2-0.5,0.4-1,0.4-1.5c0-0.2-0.1-0.4-0.1-0.6
		c-0.1,0.2-0.2,0.5-0.2,0.7c-0.1-0.1-0.1-0.2-0.1-0.3c0-0.1,0.1-0.2,0.1-0.4c0.2-0.4,0.2-0.9,0.1-1.3c-0.1,0.2-0.1,0.4-0.2,0.6
		c-0.1-0.7,0.6-1.3,0.5-2c0,0.1-0.1,0.3-0.2,0.4c0-0.3,0.2-0.4,0.3-0.7c0.1-0.2,0.2-0.5,0.3-0.8c0.1-0.3,0.3-0.6,0.4-0.9
		c0.1-0.2,0.2-0.4,0.3-0.6c0.2-0.3,0.6-0.5,0.9-0.8c0.3-0.2,0.7-0.5,1-0.8c0.5-0.5,0.8-1.2,1-1.8c0.5-1.2,0.9-2.4,1.4-3.6
		c0.2-0.6,0.5-1.2,0.9-1.6c0.4-0.4,0.9-0.6,1.5-0.6c0.4,0,0.8,0.1,1,0.4c0.3,0.2,0.3,0.6,0.3,0.9c0,0.2,0.1,0.4,0.2,0.5
		c0.1,0.3,0.3,0.6,0.4,0.8c0.2,0.3,0.5,0.4,0.8,0.4c0.4,0.1,0.8,0.1,1,0.3c0.2,0.2,0.3,0.3,0.6,0.4c0.3,0.1,0.6,0.1,0.9,0.1
		c0.7,0,1.4,0,2-0.4c0.5-0.3,0.7-0.9,1.1-1.4c0.2-0.2,0.4-0.4,0.5-0.7c0.1-0.3,0.2-0.6,0.2-0.9c0-0.4-0.1-0.9,0.1-1.2
		c0.2-0.4,0.7-0.5,1.1-0.6c0.6-0.1,1.3-0.1,1.8,0.3c0.5,0.4,0.6,1,0.7,1.6c0,0.2,0,0.4,0.1,0.5c0.1,0.2,0.2,0.3,0.3,0.5
		c0.1,0.2,0.2,0.5,0.4,0.8c0.1,0.2,0.3,0.4,0.5,0.5c0.4,0.4,0.8,0.8,1.1,1.2c0.2,0.3,0.3,0.5,0.6,0.7c0.1,0.1,0.1,0.2,0.2,0.3
		c0.1,0,0.1,0.1,0.2,0.1c0.2,0.1,0.3,0.3,0.5,0.4c0.1,0.1,0.2,0.1,0.2,0.2c0.1,0.1,0.2,0.2,0.2,0.3c0.5,0.5,0.9,1.1,1.3,1.6
		c1,1.3,2.4,2.4,4.1,2.6c0.6,0.1,1.3,0,1.9-0.2c0.6-0.2,1.2-0.7,1.4-1.3c0.3-0.7,0.6-1.4,0.9-2.2c0.1-0.3,0.1-0.6,0.3-0.9
		c0.2-0.3,0.4-0.6,0.7-0.8c0.1-0.1,0.2-0.1,0.2-0.2c0.1-0.1,0.1-0.3,0.2-0.5c0.2-0.3,0.5-0.5,0.3-0.9c0-0.1-0.1-0.1-0.1-0.2
		c0-0.1,0-0.1,0-0.2c0-0.1,0.1-0.3,0.2-0.3c0.1,0,0.2,0.1,0.3,0.1c0.2,0.1,0.2,0.1,0.4,0c0.1,0,0.3-0.1,0.4-0.1c0-0.1,0-0.2,0-0.3
		c0,0,0.1,0,0.1-0.1c0.3,0,0.6,0.1,0.8,0.3c0,0,0.1,0.1,0.1,0.1c0,0,0.1,0,0.2,0c0.2,0,0.3,0,0.5,0c0.2,0,0.3,0.3,0.5,0.3
		c0.1,0,0.1,0,0.2,0c0.2,0,0.3,0,0.5,0c0.2,0,0.4,0.1,0.6,0.2c0.5,0.1,0.9,0,1.4,0.1c0.2,0,0.3,0.1,0.5,0.1c0.2,0,0.4,0,0.6,0.1
		c0.1,0,0.1,0.1,0.2,0.1c0.1,0.1,0.3,0.1,0.4,0.2c0.1,0.1,0.2,0.2,0.3,0.3c0,0.1,0.1,0.1,0.1,0.2c0,0.1,0,0.1,0,0.2
		c0,0.1,0,0.1,0.1,0.1c0.1,0.1,0.2,0.2,0.3,0.3c0,0,0,0.1,0.1,0.1c0.1,0.1,0.1,0.1,0.1,0.2c0,0.2-0.3,0.3-0.2,0.4
		c-0.1,0-0.3,0.1-0.4,0.1c0,0.1,0.1,0.2,0.1,0.3c0,0.1-0.1,0.2-0.2,0.3s-0.2,0.1-0.4,0.1c-0.2,0-0.4,0-0.6-0.1
		c-0.1,0-0.2-0.1-0.3-0.1c-0.3-0.1-0.7,0.2-1,0.3c-0.3,0.2-0.6,0.4-0.9,0.6c-0.3,0.2-0.6,0.5-0.9,0.6c-0.2,0.1-0.3,0.1-0.5,0.1
		c-0.1,0.1-0.3,0.1-0.4,0.3c0,0.1,0,0.2,0,0.3s0,0.2,0,0.3c0,0.1-0.1,0.2-0.2,0.3c-0.2,0.2-0.3,0.4-0.5,0.6
		c-0.1,0.2-0.2,0.3-0.2,0.5c-0.1,0.2-0.3,0.5-0.5,0.7c-0.1,0.1-0.1,0.3-0.2,0.4c-0.1,0.1-0.2,0.2-0.2,0.3c-0.2,0.2-0.4,0.5-0.7,0.7
		c-0.1,0.1-0.3,0.3-0.4,0.4c-0.1,0.1-0.3,0.2-0.4,0.4c-0.2,0.2-0.4,0.4-0.6,0.5c-0.2,0.2-0.5,0.4-0.7,0.6c0,0-0.1,0.1-0.1,0.1
		c-0.3,0.2-0.7,0.4-1,0.6c-0.4,0.2-0.8,0.5-1.2,0.6c-0.4,0.1-0.9,0.2-1.3,0.2c-0.7,0-1.3,0-2-0.1c-0.7-0.1-1.4-0.1-2.1-0.3
		c-0.1,0-0.2,0-0.3,0c-0.1,0.1-0.1,0.2-0.1,0.3c-0.1,0.3-0.4,0.5-0.7,0.7c0,0-0.1,0-0.1,0.1c0,0,0,0.1,0,0.1
		c0.2,0.4,0.3,0.9,0.5,1.3c0.1,0.3,0.2,0.7,0.4,1c0.2,0.4,0.3,0.8,0.5,1.2c0.2,0.5,0.4,1,0.6,1.4c0.1,0.2,0.2,0.5,0.4,0.7
		c0.1,0.1,0.1,0.2,0.1,0.3c0,0.1,0.1,0.2,0.2,0.3c0.2,0.2,0.3,0.5,0.5,0.8c0.1,0.2,0.2,0.4,0.2,0.6c0,0.1,0,0.2,0,0.4
		c0,0.5,0.1,0.9,0.2,1.4c0.2,0.4,0.4,0.9,0.5,1.3c0.2,0.4,0.3,0.9,0.5,1.3c0.3,0.7,0.6,1.4,0.9,2.1c0.1,0.2,0.2,0.4,0.3,0.6
		c0.2,0.3,0.4,0.7,0.7,0.9c0.2,0.1,0.5,0.1,0.7,0.1c0.2,0.1,0.7,0.2,0.7,0.5c0,0.1,0,0.1-0.1,0.2c0,0,0,0.1,0,0.1
		c0,0.1-0.1,0.1-0.2,0.2c-0.2,0.1-0.4,0.4-0.6,0.4c-0.3,0-0.7,0.1-1,0.1c-0.2,0-0.4,0-0.6,0c-0.2-0.1-0.3-0.2-0.4-0.3
		c-0.1-0.1-0.2-0.3-0.3-0.4c0-0.2,0.1-0.4,0.1-0.6c0-0.3-0.3-0.4-0.5-0.7c0-0.1-0.1-0.1-0.1-0.2c-0.1-0.4-0.3-0.7-0.4-1.1
		c-0.1-0.4-0.2-0.7-0.3-1.1c-0.2-0.6-0.3-1.1-0.6-1.6c-0.1-0.3-0.3-0.6-0.4-0.9c-0.1-0.2-0.2-0.4-0.3-0.6c-0.1-0.2-0.2-0.5-0.4-0.7
		c-0.1-0.2-0.3-0.4-0.4-0.7c0-0.1-0.1-0.3-0.1-0.4c-0.1-0.3-0.3-0.6-0.5-0.9c-0.9-1.7-2-3.2-3.2-4.7c-0.1-0.2-0.3-0.4-0.5-0.4
		c-0.2-0.1-0.4,0-0.5-0.2c-0.4,0.5-0.7,1.1-1,1.7c-0.8,1.5-1.6,3-2.1,4.6c0,0.1-0.1,0.2-0.1,0.3c0,0.2-0.1,0.3-0.1,0.5
		c-0.2,0.3-0.4,0.6-0.6,0.9c-0.2,0.2-0.3,0.5-0.4,0.8c-0.3,0.8-0.6,1.5-0.8,2.3c-0.1,0.3-0.1,0.5-0.2,0.7c-0.1,0.3-0.2,0.5-0.3,0.8
		c-0.1,0.4-0.2,0.8-0.2,1.2c0,0.1,0,0.1,0.1,0.2c0,0.1,0.1,0.1,0.2,0.1c0.1,0.1,0.1,0.1,0.2,0.2c0.1,0.1,0.2,0.3,0.3,0.4
		c0.3,0.3,0.7,0.4,1.1,0.5c0.1,0,0.2,0,0.2,0.1c0.1,0,0.1,0.1,0.1,0.2c0,0,0,0.1-0.1,0.1c-0.3,0.3-0.6,0.2-1,0.2c-0.4,0-0.8,0-1.1,0
		c-0.4,0-0.7,0.1-1.1,0c-0.1,0-0.2-0.1-0.3-0.1c-0.1-0.1,0-0.3,0.1-0.4c0.1-0.2,0.3-0.3,0.4-0.5c0.1-0.1,0-0.3,0-0.5
		c-0.1-0.1-0.1-0.2-0.2-0.3c-0.1-0.2,0-0.5,0.1-0.8c0,0,0,0,0,0c0.1-0.2,0.1-0.4,0.2-0.5c0.1-0.3,0.3-0.7,0.4-1
		c0.1-0.5,0.3-0.9,0.5-1.4c0.2-0.4,0.3-0.9,0.4-1.3c0-0.2,0.1-0.4,0.1-0.7c0-0.3,0.1-0.5,0.1-0.8c0-0.4,0-0.8,0.1-1.2
		c0-0.2,0.1-0.4,0.2-0.5c0.3-0.7,0.6-1.4,0.9-2.1c0.1-0.2,0.2-0.4,0.2-0.6c0-0.1,0.1-0.2,0.1-0.4c0.2-0.5,0.4-1,0.6-1.6
		c0-0.1,0.1-0.3,0.1-0.4c0.1-0.3,0.2-0.7,0.3-1c-0.9-0.1-1.8-0.2-2.6-0.4c-1.6-0.3-3.2-0.6-4.7-1.1c-0.4-0.1-0.8-0.2-1.1-0.4
		c-0.1-0.1-0.2-0.1-0.3-0.2c-0.1-0.1-0.3-0.2-0.4-0.3c-0.2-0.1-0.4-0.2-0.6-0.3c-0.1-0.1-0.3-0.2-0.4-0.2c-0.2-0.1-0.4-0.3-0.6-0.4
		c-0.3-0.2-0.6-0.4-0.8-0.7c0-0.1-0.1-0.1-0.1-0.2c-0.1-0.1-0.1-0.1-0.2-0.2c-0.2-0.2-0.4-0.4-0.6-0.5c0,0,0,0,0,0c0,0,0,0,0,0
		c-0.1,0.1-0.1,0.2-0.1,0.3c0,0.1-0.1,0.1-0.1,0.2c-0.1,0.2-0.2,0.5-0.3,0.7c-0.1,0.2-0.2,0.5-0.3,0.7c0,0.1-0.1,0.2-0.1,0.3
		c0,0.1,0,0.2,0,0.3c0,0.3,0.1,0.7,0.1,1c0,0.3,0,0.6,0,1c0,0.1,0,0.2,0,0.3c-0.1,0.1-0.1,0.2-0.2,0.3c-0.1,0.2-0.3,0.4-0.4,0.6
		c-0.2,0.4-0.5,0.8-0.7,1.3c-0.1,0.3-0.3,0.6-0.4,0.9c-0.1,0.3-0.2,0.7-0.3,1c-0.3,1.3-0.6,2.6-0.4,4c0,0.2,0.1,0.5,0.1,0.7
		c0,0.3,0,0.5,0,0.8c0,0.3,0.1,0.6,0.2,0.9c0.2,0.6,0.4,1.2,0.6,1.7c0.1,0.2,0.1,0.4,0.2,0.6c0.1,0.2,0.2,0.5,0.2,0.7
		c0,0.1,0,0.2,0.1,0.3c0,0.1,0.1,0.2,0.1,0.2c0.1,0.2,0.3,0.4,0.4,0.6c0.1,0.2,0.2,0.3,0.4,0.4c0,0,0.1,0.1,0.1,0.1
		c0.1,0.1,0.2,0.2,0.4,0.2c0.2,0.1,0.4,0.1,0.6,0.2c0.2,0.1,0.4,0.1,0.6,0.2c0.2,0.1,0.5,0.3,0.5,0.5c-0.1,0-0.2,0-0.3,0
		c0,0-0.1,0-0.1,0c0,0,0,0,0,0c-0.1,0.2-0.3,0.2-0.5,0.2c-0.8,0-1.6,0-2.4-0.2c0-0.3,0-0.5-0.2-0.8c-0.1-0.1-0.2-0.3-0.3-0.4
		c0-0.1,0-0.2,0-0.2c0-0.1,0-0.2-0.1-0.3c-0.4-1.5-1.2-2.8-1.7-4.3c-0.2-0.5-0.3-1.1-0.6-1.5c-0.3-0.5-0.6-0.9-0.8-1.4
		c-0.1-0.1-0.1-0.3-0.1-0.5c0-0.1,0.1-0.2,0.1-0.4c0.1-0.2,0.2-0.5,0.3-0.7c0.1-0.2,0.1-0.3,0.2-0.5c0-0.1,0-0.3,0-0.4
		c0-0.2,0.1-0.3,0.1-0.5c0.1-0.5,0.2-1.1,0.3-1.7c-0.1,0.1-0.2,0.2-0.3,0.3c-0.3,0.2-0.4,0.6-0.5,0.9c-0.1,0.2-0.2,0.4-0.4,0.5
		c-0.3,0.5-0.6,0.9-0.9,1.4c-0.1,0.1-0.1,0.2-0.1,0.3c0,0.2,0,0.5,0,0.7c-0.1,0.2-0.2,0.5-0.4,0.7c-0.1,0.2-0.2,0.3-0.3,0.5
		c-0.2,0.3-0.2,0.6-0.3,1c-0.1,0.5-0.2,1-0.3,1.5c-0.2,1-0.4,2.1-0.5,3.1c0,0.3,0,0.6,0.1,0.8c0.1,0.2,0.3,0.3,0.4,0.5
		c0,0.1,0.1,0.2,0.1,0.3c-0.1,0.4-0.8,0.2-1.1,0.2c-0.3,0-0.7-0.1-0.9-0.3c-0.2-0.2-0.5-0.6-0.2-0.9c0.2-0.2,0.5-0.4,0.6-0.7
		c0.1-0.3-0.1-0.6-0.1-0.8c0-0.2,0.1-0.3,0.2-0.5c0.1-0.2,0.1-0.4,0.2-0.6c0.1-0.7,0.3-1.4,0.4-2.2c0-0.3,0.1-0.5,0.1-0.8
		c0-0.3,0-0.6,0-0.9c0-0.2,0.1-0.4,0.1-0.6c0-0.2,0-0.3,0-0.5c0-0.4-0.1-0.9-0.1-1.3c0-0.1,0-0.3,0-0.4c0-0.3,0.2-0.5,0.4-0.7
		c0.2-0.2,0.4-0.5,0.5-0.8c0.3-0.6,0.6-1.1,1-1.7c0.2-0.3,0.4-0.7,0.5-1C3247.6,181.5,3247.9,181.1,3248.2,180.7z"/>
	<path class="st5" d="M2132.4,180.7c-0.1-0.1-0.1-0.2-0.2-0.3c0-0.1-0.1-0.2-0.1-0.3c0-0.1,0-0.1,0-0.2c0,0,0-0.1,0-0.1
		c-0.1-0.4,0-0.7,0-1.1c0-0.1,0-0.2,0-0.3c0-0.2,0-0.4-0.1-0.6c-0.1-0.2-0.1-0.4-0.1-0.6c0-0.1,0-0.2,0-0.4c0-0.3,0-0.5,0.1-0.8
		c0-0.1,0-0.3,0-0.4c0,0,0-0.1,0-0.1c0,0,0-0.2,0-0.2c0.3,0.4,0.3,1,0.4,1.5c0,0.2,0.1,0.4,0.1,0.6c0,0.3,0,0.6-0.1,0.9
		c0,0.1-0.1,0.2-0.1,0.3c0,0.1,0,0.2,0,0.3c0,0,0,0,0,0.1c0,0.4,0.1,0.8,0.3,1.3c0,0.1,0.1,0.2,0.1,0.3c0,0.1,0,0.1,0,0.2
		c0.1,0.2,0.2,0.4,0.3,0.5c0.1,0.2,0.2,0.3,0.3,0.4c0.1-0.4-0.4-0.7-0.3-1.1c0,0.1,0.1,0.2,0.1,0.3c0-0.2,0-0.5,0.1-0.7
		c0,0.3,0,0.6,0.2,0.8c0.2-0.6-0.5-1.2-0.3-1.9c0.1,0.3,0.2,0.5,0.3,0.8c0.2-0.5-0.4-1-0.4-1.5c0-0.2,0.1-0.4,0.1-0.6
		c0.1,0.2,0.2,0.5,0.2,0.7c0.1-0.1,0.1-0.2,0.1-0.3c0-0.1-0.1-0.2-0.1-0.4c-0.2-0.4-0.2-0.9-0.1-1.3c0.1,0.2,0.1,0.4,0.2,0.6
		c0.1-0.7-0.6-1.3-0.5-2c0,0.1,0.1,0.3,0.2,0.4c0-0.3-0.2-0.4-0.3-0.7c-0.1-0.2-0.2-0.5-0.3-0.8c-0.1-0.3-0.3-0.6-0.4-0.9
		c-0.1-0.2-0.2-0.4-0.3-0.6c-0.2-0.3-0.6-0.5-0.9-0.8c-0.3-0.2-0.7-0.5-1-0.8c-0.5-0.5-0.8-1.2-1.1-1.8c-0.5-1.2-0.9-2.4-1.4-3.6
		c-0.2-0.6-0.5-1.2-0.9-1.6c-0.4-0.4-0.9-0.6-1.5-0.6c-0.4,0-0.8,0.1-1,0.4c-0.3,0.2-0.3,0.6-0.3,0.9c0,0.2-0.1,0.4-0.2,0.5
		c-0.1,0.3-0.3,0.6-0.4,0.8c-0.2,0.3-0.5,0.4-0.8,0.4c-0.4,0.1-0.8,0.1-1,0.3c-0.2,0.2-0.3,0.3-0.6,0.4c-0.3,0.1-0.6,0.1-0.9,0.1
		c-0.7,0-1.4,0-2-0.4c-0.5-0.3-0.7-0.9-1.1-1.4c-0.2-0.2-0.4-0.4-0.5-0.7c-0.1-0.3-0.2-0.6-0.2-0.9c0-0.4,0.1-0.9-0.1-1.2
		c-0.2-0.4-0.7-0.5-1.1-0.6c-0.6-0.1-1.3-0.1-1.8,0.3c-0.5,0.4-0.6,1-0.7,1.6c0,0.2,0,0.4-0.1,0.5c-0.1,0.2-0.2,0.3-0.3,0.5
		c-0.1,0.2-0.2,0.5-0.4,0.8c-0.1,0.2-0.3,0.4-0.5,0.5c-0.4,0.4-0.8,0.8-1.1,1.2c-0.2,0.3-0.3,0.5-0.6,0.7c-0.1,0.1-0.1,0.2-0.2,0.3
		c-0.1,0-0.1,0.1-0.2,0.1c-0.2,0.1-0.3,0.3-0.5,0.4c-0.1,0.1-0.2,0.1-0.2,0.2c-0.1,0.1-0.2,0.2-0.2,0.3c-0.5,0.5-0.9,1.1-1.3,1.6
		c-1,1.3-2.4,2.4-4.1,2.6c-0.6,0.1-1.3,0-1.9-0.2c-0.6-0.2-1.2-0.7-1.4-1.3c-0.3-0.7-0.6-1.4-0.9-2.2c-0.1-0.3-0.1-0.6-0.3-0.9
		c-0.2-0.3-0.4-0.6-0.7-0.8c-0.1-0.1-0.2-0.1-0.2-0.2c-0.1-0.1-0.1-0.3-0.2-0.5c-0.2-0.3-0.5-0.5-0.3-0.9c0-0.1,0.1-0.1,0.1-0.2
		c0-0.1,0-0.1,0-0.2c0-0.1-0.1-0.3-0.2-0.3c-0.1,0-0.2,0.1-0.3,0.1c-0.2,0.1-0.2,0.1-0.4,0c-0.1,0-0.3-0.1-0.4-0.1
		c0-0.1,0-0.2,0-0.3c0,0-0.1,0-0.1-0.1c-0.3,0-0.6,0.1-0.8,0.3c0,0-0.1,0.1-0.1,0.1c0,0-0.1,0-0.2,0c-0.2,0-0.3,0-0.5,0
		c-0.2,0-0.3,0.3-0.5,0.3c-0.1,0-0.1,0-0.2,0c-0.2,0-0.3,0-0.5,0c-0.2,0-0.4,0.1-0.6,0.2c-0.5,0.1-0.9,0-1.4,0.1
		c-0.2,0-0.3,0.1-0.5,0.1c-0.2,0-0.4,0-0.6,0.1c-0.1,0-0.1,0.1-0.2,0.1c-0.1,0.1-0.3,0.1-0.4,0.2c-0.1,0.1-0.2,0.2-0.3,0.3
		c0,0.1-0.1,0.1-0.1,0.2c0,0.1,0,0.1,0,0.2c0,0.1,0,0.1-0.1,0.1c-0.1,0.1-0.2,0.2-0.3,0.3c0,0,0,0.1-0.1,0.1
		c-0.1,0.1-0.1,0.1-0.1,0.2c0,0.2,0.3,0.3,0.2,0.4c0.1,0,0.3,0.1,0.4,0.1c0,0.1-0.1,0.2-0.1,0.3c0,0.1,0.1,0.2,0.2,0.3
		c0.1,0,0.2,0.1,0.4,0.1c0.2,0,0.4,0,0.6-0.1c0.1,0,0.2-0.1,0.3-0.1c0.3-0.1,0.7,0.2,1,0.3c0.3,0.2,0.6,0.4,0.9,0.6
		c0.3,0.2,0.6,0.5,0.9,0.6c0.2,0.1,0.3,0.1,0.5,0.1c0.1,0.1,0.3,0.1,0.4,0.3c0,0.1,0,0.2,0,0.3c0,0.1,0,0.2,0,0.3
		c0,0.1,0.1,0.2,0.2,0.3c0.2,0.2,0.3,0.4,0.5,0.6c0.1,0.2,0.2,0.3,0.2,0.5c0.1,0.2,0.3,0.5,0.5,0.7c0.1,0.1,0.1,0.3,0.2,0.4
		c0.1,0.1,0.2,0.2,0.2,0.3c0.2,0.2,0.4,0.5,0.7,0.7c0.1,0.1,0.3,0.3,0.4,0.4c0.1,0.1,0.3,0.2,0.4,0.4c0.2,0.2,0.4,0.4,0.6,0.5
		c0.2,0.2,0.5,0.4,0.7,0.6c0,0,0.1,0.1,0.1,0.1c0.3,0.2,0.7,0.4,1,0.6c0.4,0.2,0.8,0.5,1.2,0.6c0.4,0.1,0.9,0.2,1.3,0.2
		c0.7,0,1.3,0,2-0.1c0.7-0.1,1.4-0.1,2.1-0.3c0.1,0,0.2,0,0.3,0c0.1,0.1,0.1,0.2,0.1,0.3c0.1,0.3,0.4,0.5,0.7,0.7c0,0,0.1,0,0.1,0.1
		c0,0,0,0.1,0,0.1c-0.2,0.4-0.3,0.9-0.5,1.3c-0.1,0.3-0.2,0.7-0.4,1c-0.2,0.4-0.3,0.8-0.5,1.2c-0.2,0.5-0.4,1-0.6,1.4
		c-0.1,0.2-0.2,0.5-0.4,0.7c-0.1,0.1-0.1,0.2-0.1,0.3c0,0.1-0.1,0.2-0.2,0.3c-0.2,0.2-0.3,0.5-0.5,0.8c-0.1,0.2-0.2,0.4-0.2,0.6
		c0,0.1,0,0.2,0,0.4c0,0.5-0.1,0.9-0.2,1.4c-0.2,0.4-0.4,0.9-0.5,1.3c-0.2,0.4-0.3,0.9-0.5,1.3c-0.3,0.7-0.6,1.4-0.9,2.1
		c-0.1,0.2-0.2,0.4-0.3,0.6c-0.2,0.3-0.4,0.7-0.7,0.9c-0.2,0.1-0.5,0.1-0.7,0.1c-0.2,0.1-0.7,0.2-0.7,0.5c0,0.1,0,0.1,0.1,0.2
		c0,0,0,0.1,0,0.1c0,0.1,0.1,0.1,0.2,0.2c0.2,0.1,0.4,0.4,0.6,0.4c0.3,0,0.7,0.1,1,0.1c0.2,0,0.4,0,0.6,0c0.2-0.1,0.3-0.2,0.4-0.3
		c0.1-0.1,0.2-0.3,0.3-0.4c0-0.2-0.1-0.4-0.1-0.6c0-0.3,0.3-0.4,0.5-0.7c0-0.1,0.1-0.1,0.1-0.2c0.1-0.4,0.3-0.7,0.4-1.1
		c0.1-0.4,0.2-0.7,0.3-1.1c0.2-0.6,0.3-1.1,0.6-1.6c0.1-0.3,0.3-0.6,0.4-0.9c0.1-0.2,0.2-0.4,0.3-0.6c0.1-0.2,0.2-0.5,0.4-0.7
		c0.1-0.2,0.3-0.4,0.4-0.7c0-0.1,0.1-0.3,0.1-0.4c0.1-0.3,0.3-0.6,0.5-0.9c0.9-1.7,2-3.2,3.2-4.7c0.1-0.2,0.3-0.4,0.5-0.4
		c0.2-0.1,0.4,0,0.5-0.2c0.4,0.5,0.7,1.1,1,1.7c0.8,1.5,1.6,3,2.1,4.6c0,0.1,0.1,0.2,0.1,0.3c0,0.2,0.1,0.3,0.1,0.5
		c0.2,0.3,0.4,0.6,0.6,0.9c0.2,0.2,0.3,0.5,0.4,0.8c0.3,0.8,0.6,1.5,0.8,2.3c0.1,0.3,0.1,0.5,0.2,0.7c0.1,0.3,0.2,0.5,0.3,0.8
		c0.1,0.4,0.2,0.8,0.2,1.2c0,0.1,0,0.1-0.1,0.2c0,0.1-0.1,0.1-0.2,0.1c-0.1,0.1-0.1,0.1-0.2,0.2c-0.1,0.1-0.2,0.3-0.3,0.4
		c-0.3,0.3-0.7,0.4-1.1,0.5c-0.1,0-0.2,0-0.2,0.1s-0.1,0.1-0.1,0.2c0,0,0,0.1,0.1,0.1c0.3,0.3,0.6,0.2,1,0.2c0.4,0,0.8,0,1.1,0
		c0.4,0,0.7,0.1,1.1,0c0.1,0,0.2-0.1,0.3-0.1c0.1-0.1,0-0.3-0.1-0.4c-0.1-0.2-0.3-0.3-0.4-0.5c-0.1-0.1,0-0.3,0-0.5
		c0.1-0.1,0.1-0.2,0.2-0.3c0.1-0.2,0-0.5-0.1-0.8c0,0,0,0,0,0c-0.1-0.2-0.1-0.4-0.2-0.5c-0.1-0.3-0.3-0.7-0.4-1
		c-0.1-0.5-0.3-0.9-0.5-1.4c-0.2-0.4-0.3-0.9-0.4-1.3c0-0.2-0.1-0.4-0.1-0.7c0-0.3-0.1-0.5-0.1-0.8c0-0.4,0-0.8-0.1-1.2
		c0-0.2-0.1-0.4-0.2-0.5c-0.3-0.7-0.6-1.4-0.9-2.1c-0.1-0.2-0.2-0.4-0.2-0.6c0-0.1-0.1-0.2-0.1-0.4c-0.2-0.5-0.4-1-0.6-1.6
		c0-0.1-0.1-0.3-0.1-0.4c-0.1-0.3-0.2-0.7-0.3-1c0.9-0.1,1.8-0.2,2.6-0.4c1.6-0.3,3.2-0.6,4.7-1.1c0.4-0.1,0.8-0.2,1.1-0.4
		c0.1-0.1,0.2-0.1,0.3-0.2c0.1-0.1,0.3-0.2,0.4-0.3c0.2-0.1,0.4-0.2,0.6-0.3c0.1-0.1,0.3-0.2,0.4-0.2c0.2-0.1,0.4-0.3,0.6-0.4
		c0.3-0.2,0.6-0.4,0.8-0.7c0-0.1,0.1-0.1,0.1-0.2c0.1-0.1,0.1-0.1,0.2-0.2c0.2-0.2,0.4-0.4,0.6-0.5c0,0,0,0,0,0c0,0,0,0,0,0
		c0.1,0.1,0.1,0.2,0.1,0.3c0,0.1,0.1,0.1,0.1,0.2c0.1,0.2,0.2,0.5,0.3,0.7c0.1,0.2,0.2,0.5,0.3,0.7c0,0.1,0.1,0.2,0.1,0.3
		c0,0.1,0,0.2,0,0.3c0,0.3-0.1,0.7-0.1,1c0,0.3,0,0.6,0,1c0,0.1,0,0.2,0,0.3c0.1,0.1,0.1,0.2,0.2,0.3c0.1,0.2,0.3,0.4,0.4,0.6
		c0.2,0.4,0.5,0.8,0.7,1.3c0.1,0.3,0.3,0.6,0.4,0.9c0.1,0.3,0.2,0.7,0.3,1c0.3,1.3,0.6,2.6,0.4,4c0,0.2-0.1,0.5-0.1,0.7
		c0,0.3,0,0.5,0,0.8c0,0.3-0.1,0.6-0.2,0.9c-0.2,0.6-0.4,1.2-0.6,1.7c-0.1,0.2-0.1,0.4-0.2,0.6c-0.1,0.2-0.2,0.5-0.2,0.7
		c0,0.1,0,0.2-0.1,0.3c0,0.1-0.1,0.2-0.1,0.2c-0.1,0.2-0.3,0.4-0.4,0.6c-0.1,0.2-0.2,0.3-0.4,0.4c0,0-0.1,0.1-0.1,0.1
		c-0.1,0.1-0.2,0.2-0.4,0.2c-0.2,0.1-0.4,0.1-0.6,0.2c-0.2,0.1-0.4,0.1-0.6,0.2c-0.2,0.1-0.5,0.3-0.5,0.5c0.1,0,0.2,0,0.3,0
		c0,0,0.1,0,0.1,0c0,0,0,0,0,0c0.1,0.2,0.3,0.2,0.5,0.2c0.8,0,1.6,0,2.4-0.2c0-0.3,0-0.5,0.2-0.8c0.1-0.1,0.2-0.3,0.3-0.4
		c0-0.1,0-0.2,0-0.2c0-0.1,0-0.2,0.1-0.3c0.4-1.5,1.2-2.8,1.7-4.3c0.2-0.5,0.3-1.1,0.6-1.5c0.3-0.5,0.6-0.9,0.8-1.4
		c0.1-0.1,0.1-0.3,0.1-0.5c0-0.1-0.1-0.2-0.1-0.4c-0.1-0.2-0.2-0.5-0.3-0.7c-0.1-0.2-0.1-0.3-0.2-0.5c0-0.1,0-0.3,0-0.4
		c0-0.2-0.1-0.3-0.1-0.5c-0.1-0.5-0.2-1.1-0.3-1.7c0.1,0.1,0.2,0.2,0.3,0.3c0.3,0.2,0.4,0.6,0.5,0.9c0.1,0.2,0.2,0.4,0.4,0.5
		c0.3,0.5,0.6,0.9,0.9,1.4c0.1,0.1,0.1,0.2,0.1,0.3c0,0.2,0,0.5,0,0.7c0.1,0.2,0.2,0.5,0.4,0.7c0.1,0.2,0.2,0.3,0.3,0.5
		c0.2,0.3,0.2,0.6,0.3,1c0.1,0.5,0.2,1,0.3,1.5c0.2,1,0.4,2.1,0.5,3.1c0,0.3,0,0.6-0.1,0.8c-0.1,0.2-0.3,0.3-0.4,0.5
		c0,0.1-0.1,0.2-0.1,0.3c0.1,0.4,0.8,0.2,1.1,0.2c0.3,0,0.7-0.1,0.9-0.3c0.2-0.2,0.5-0.6,0.2-0.9c-0.2-0.2-0.5-0.4-0.6-0.7
		c-0.1-0.3,0.1-0.6,0.1-0.8c0-0.2-0.1-0.3-0.2-0.5c-0.1-0.2-0.1-0.4-0.2-0.6c-0.1-0.7-0.3-1.4-0.4-2.2c0-0.3-0.1-0.5-0.1-0.8
		c0-0.3,0-0.6,0-0.9c0-0.2-0.1-0.4-0.1-0.6c0-0.2,0-0.3,0-0.5c0-0.4,0.1-0.9,0.1-1.3c0-0.1,0-0.3,0-0.4c0-0.3-0.2-0.5-0.4-0.7
		c-0.2-0.2-0.4-0.5-0.5-0.8c-0.3-0.6-0.6-1.1-1-1.7c-0.2-0.3-0.4-0.7-0.5-1C2132.9,181.5,2132.6,181.1,2132.4,180.7z"/>
</g>
</svg>
